PathFileType	4	(X/Y/Z)	./resultDataOpenSim/trcMotMarkerGrf/sub06/qtm-02-02.trc
DataRate	CameraRate	NumFrames	NumMarkers	Units	OrigDataRate	OrigDataStartFrame	OrigNumFrames
250.000000	250.000000	8	24	m	250.000000	121	483
Frame#	Time	L.Toe.Tip			R.Toe.Tip			L.Ankle.Lat			R.Ankle.Lat			L.Ankle.Med			R.Ankle.Med			L.Heel			R.Heel			L.Knee.Lat			R.Knee.Lat			L.Knee.Med			R.Knee.Med			L.Thigh.Upper			R.Thigh.Upper			L.ASIS			R.ASIS			V.Sacral			L.Acromium			R.Acromium			C7			L.Elbow			R.Elbow			L.Wrist.Lat			R.Wrist.Lat
		X1	Y1	Z1	X2	Y2	Z2	X3	Y3	Z3	X4	Y4	Z4	X5	Y5	Z5	X6	Y6	Z6	X7	Y7	Z7	X8	Y8	Z8	X9	Y9	Z9	X10	Y10	Z10	X11	Y11	Z11	X12	Y12	Z12	X13	Y13	Z13	X14	Y14	Z14	X15	Y15	Z15	X16	Y16	Z16	X17	Y17	Z17	X18	Y18	Z18	X19	Y19	Z19	X20	Y20	Z20	X21	Y21	Z21	X22	Y22	Z22	X23	Y23	Z23	X24	Y24	Z24

121	0.48	-0.22679166	0.082875527	-0.093406292	-0.72427004	0.035982435	0.081962718	-0.35400235	0.091346832	-0.10601666	-0.85791957	0.06828505	0.097436878	-0.34887106	0.10905465	-0.021405338	-0.83403752	0.084062177	0.010911179	-0.41333153	0.046205398	-0.051910828	-0.9127487	0.047106367	0.033331919	-0.38470651	0.46764595	-0.11551756	-0.71219868	0.42857544	0.12956726	-0.40148188	0.45820581	0.0061473177	-0.74383344	0.42987801	-0.0014056279	-0.57956593	0.81299981	-0.15716244	-0.62732609	0.78510804	0.1925757	-0.51943149	0.85362182	-0.10057035	-0.52368063	0.8362188	0.14460836	-0.70758757	0.92003269	0.027040111	-0.59301297	1.327875	-0.16423948	-0.56980823	1.3234515	0.192682	-0.65624343	1.3578649	0.01812236	-0.69452247	1.0284675	-0.21639643	-0.59237156	1.0096586	0.29153653	-0.57492092	0.8159455	-0.25482258	-0.35708608	0.91935357	0.26781353
122	0.484	-0.20822868	0.084626288	-0.092555633	-0.72420983	0.035898581	0.081902745	-0.33569102	0.091366226	-0.10606066	-0.85765667	0.06864381	0.097212732	-0.33146474	0.10911862	-0.021601059	-0.83352582	0.084321442	0.010671673	-0.39491059	0.045353812	-0.051758186	-0.91252957	0.047750731	0.033050031	-0.37751304	0.46587754	-0.11473817	-0.70884443	0.42779075	0.12957765	-0.39454883	0.4558873	0.0071146423	-0.74017787	0.42925002	-0.0015767774	-0.57281916	0.81082686	-0.15737246	-0.62182397	0.78317607	0.19274085	-0.51239113	0.85146458	-0.10085322	-0.51720609	0.83415644	0.14441841	-0.70048401	0.91781684	0.026436656	-0.58663084	1.3256777	-0.16452748	-0.56339202	1.3214392	0.19252409	-0.64994695	1.3560248	0.017936122	-0.68934128	1.0268237	-0.21618941	-0.5840918	1.0075564	0.29199065	-0.57187076	0.81346646	-0.25594194	-0.34780832	0.92024624	0.26673384
123	0.488	-0.19016805	0.08648284	-0.09176829	-0.72412566	0.03584526	0.081839771	-0.31789438	0.091566205	-0.10619065	-0.85734465	0.069039004	0.096990436	-0.31442171	0.10938187	-0.02183347	-0.83298284	0.084585657	0.010440269	-0.37696055	0.044852255	-0.051461139	-0.91229538	0.048443997	0.032771399	-0.37024634	0.46402056	-0.11391252	-0.70533363	0.42695434	0.12954136	-0.38755798	0.45342285	0.0081056931	-0.73633218	0.4285739	-0.0017674138	-0.56586621	0.80859829	-0.15757882	-0.61613659	0.78110525	0.19255089	-0.505261	0.84925101	-0.10113432	-0.51067464	0.83217993	0.14400018	-0.69263139	0.91559977	0.025810576	-0.58019949	1.3234356	-0.16483241	-0.55706907	1.3193798	0.19234808	-0.64376076	1.3542128	0.017747679	-0.68410797	1.0251269	-0.21597101	-0.57578405	1.0054064	0.29240496	-0.56886963	0.81095826	-0.25714397	-0.33860475	0.92103895	0.26560885
124	0.492	-0.17267761	0.088481711	-0.091044994	-0.72402636	0.035807468	0.08177356	-0.30070251	0.091893865	-0.10639598	-0.85697577	0.069500325	0.096785831	-0.29784815	0.1098009	-0.022104097	-0.8324084	0.084857621	0.010223478	-0.3593715	0.044505353	-0.051325093	-0.9120502	0.049199572	0.032501685	-0.36281435	0.46211217	-0.11303479	-0.70165337	0.42607866	0.12946523	-0.38052456	0.45086006	0.0090592463	-0.73229987	0.42785337	-0.0019601965	-0.55862336	0.80634419	-0.15779787	-0.61008585	0.77911121	0.19181996	-0.49805941	0.84698002	-0.10141395	-0.5041304	0.83023343	0.14344662	-0.68423224	0.91335888	0.02511732	-0.57373542	1.3211465	-0.16515738	-0.55079258	1.3172829	0.19216006	-0.63752418	1.3523458	0.017531388	-0.67870037	1.0233609	-0.21576831	-0.56744261	1.0032177	0.29275675	-0.56571873	0.80845864	-0.25830905	-0.32949903	0.92173857	0.26446536
125	0.496	-0.15581567	0.090640717	-0.090389283	-0.72392275	0.035770677	0.081704786	-0.2841172	0.092294325	-0.10663327	-0.85655904	0.07003711	0.096598529	-0.28184572	0.11032311	-0.022382936	-0.83181447	0.085146246	0.009990404	-0.34216403	0.04410641	-0.051600149	-0.91179485	0.050026902	0.032242791	-0.35528109	0.46016437	-0.11214587	-0.69775998	0.42516022	0.12936399	-0.3734468	0.44824082	0.0099529516	-0.72807799	0.42709755	-0.0021638046	-0.55111943	0.80406041	-0.15803521	-0.60377177	0.77726587	0.19069764	-0.49080252	0.84465265	-0.10169839	-0.49763267	0.82814968	0.14303925	-0.67573095	0.91106216	0.024301367	-0.56726121	1.3188214	-0.165504	-0.54444845	1.3151482	0.19196819	-0.63103291	1.3503618	0.017238082	-0.67302185	1.0215047	-0.21559443	-0.55906722	1.0009918	0.29302847	-0.56237476	0.80594497	-0.25937967	-0.32046099	0.92235176	0.26332223
126	0.5	-0.13962784	0.092966895	-0.089799193	-0.72382027	0.035729494	0.081636023	-0.26815377	0.092733737	-0.10686009	-0.85612891	0.070627054	0.09641279	-0.26649491	0.11089336	-0.022619262	-0.83120713	0.085468679	0.0097162572	-0.32541711	0.043522305	-0.052406554	-0.91153282	0.050915569	0.031995783	-0.34782334	0.45816031	-0.11132273	-0.69362049	0.4241868	0.12924069	-0.36630074	0.4455989	0.010812258	-0.72366007	0.42631956	-0.0024044608	-0.54347339	0.80170554	-0.15827524	-0.5973999	0.77542953	0.18948798	-0.48349206	0.84227578	-0.10198877	-0.4911915	0.82578599	0.14305799	-0.66744052	0.90870021	0.023346297	-0.5607933	1.3164792	-0.16587474	-0.53796664	1.3129684	0.19178047	-0.6243041	1.3482811	0.016875509	-0.66717112	1.0195697	-0.21540366	-0.55064844	0.99873292	0.29320832	-0.5589672	0.80338146	-0.26039367	-0.31145598	0.92288848	0.26218468
127	0.504	-0.12413868	0.095447424	-0.089254688	-0.72371986	0.035686009	0.081569064	-0.25284263	0.093200292	-0.10704148	-0.85570342	0.071250285	0.096224744	-0.25184518	0.11144711	-0.022779365	-0.83057651	0.085838389	0.0094253557	-0.30916867	0.042748825	-0.053676836	-0.9112827	0.051848558	0.03177919	-0.34047912	0.45610334	-0.11059186	-0.68926005	0.42315609	0.12908944	-0.35907654	0.4429669	0.01166133	-0.71904669	0.42552139	-0.0026918539	-0.53581405	0.79924329	-0.15849234	-0.59113938	0.77348744	0.18846442	-0.47611788	0.8398587	-0.10227401	-0.48477453	0.82321384	0.14348291	-0.65945201	0.90628874	0.022277311	-0.55434124	1.314133	-0.16627103	-0.53136116	1.3107426	0.19159306	-0.61759838	1.3461807	0.016525844	-0.66136639	1.0175902	-0.21515244	-0.54218943	0.99645171	0.29330161	-0.55556231	0.80077015	-0.26138757	-0.3024652	0.92335265	0.26104994
128	0.508	-0.10935841	0.098037167	-0.088723433	-0.72362123	0.035645211	0.081505686	-0.23819651	0.093670737	-0.10713835	-0.8552517	0.071914093	0.09605049	-0.23789574	0.11189943	-0.022869416	-0.82990651	0.086254841	0.0091726995	-0.29350199	0.041887335	-0.055084803	-0.91107136	0.052822774	0.031642744	-0.33312481	0.45403239	-0.10991956	-0.68474111	0.42207569	0.12890598	-0.35179512	0.44037351	0.012497545	-0.71424542	0.4246861	-0.0030093379	-0.52819438	0.79668534	-0.1586702	-0.58502501	0.77146395	0.1877664	-0.46867188	0.83741068	-0.10254058	-0.47837349	0.82065417	0.1440045	-0.65173983	0.90385468	0.021137852	-0.54790537	1.3117837	-0.16668866	-0.52468748	1.3084911	0.19139099	-0.61108467	1.3441086	0.0162372	-0.65568692	1.0155835	-0.21489242	-0.53373534	0.99415862	0.2933376	-0.55215424	0.79811494	-0.26237043	-0.2935038	0.92373075	0.25991606
